<svg version="1.1" xmlns="http://www.w3.org/2000/svg" viewBox="0 0 1338.333333333334 253.61904761904862" width="1338.333333333334" height="253.61904761904862">
  <!-- svg-source:excalidraw -->
  
  <defs>
    <style class="style-fonts">
      @font-face {
        font-family: "Virgil";
        src: url("https://excalidraw.com/Virgil.woff2");
      }
      @font-face {
        font-family: "Cascadia";
        src: url("https://excalidraw.com/Cascadia.woff2");
      }
    </style>
  </defs>
  <rect x="0" y="0" width="1338.333333333334" height="253.61904761904862" fill="#ffffff"></rect><g stroke-linecap="round"><g transform="translate(141.75793650793594 66.71428571428714) rotate(0 0 45.714285714285325)"><path d="M0 0 C0 28.94, 0 57.88, 0 91.43 M0 0 C0 21.45, 0 42.9, 0 91.43" stroke="#000000" stroke-width="4" fill="none"></path></g></g><mask></mask><g stroke-linecap="round"><g transform="translate(143.61011904761835 112.42857142857156) rotate(0 195.89880952380986 0)"><path d="M0 0 C105.74 0, 211.47 0, 391.8 0 M0 0 C83.57 0, 167.14 0, 391.8 0" stroke="#000000" stroke-width="4" fill="none"></path></g><g transform="translate(143.61011904761835 112.42857142857156) rotate(0 195.89880952380986 0)"><path d="M363.61 10.26 C371.21 7.49, 378.82 4.72, 391.8 0 M363.61 10.26 C369.62 8.07, 375.63 5.88, 391.8 0" stroke="#000000" stroke-width="4" fill="none"></path></g><g transform="translate(143.61011904761835 112.42857142857156) rotate(0 195.89880952380986 0)"><path d="M363.61 -10.26 C371.21 -7.49, 378.82 -4.72, 391.8 0 M363.61 -10.26 C369.62 -8.07, 375.63 -5.88, 391.8 0" stroke="#000000" stroke-width="4" fill="none"></path></g></g><mask></mask><g stroke-linecap="round"><g transform="translate(537.2599206349205 66.71428571428532) rotate(0 0 45.714285714285325)"><path d="M0 0 C0 36.5, 0 73, 0 91.43 M0 0 C0 24.09, 0 48.18, 0 91.43" stroke="#000000" stroke-width="4" fill="none"></path></g></g><mask></mask><g stroke-linecap="round"><g transform="translate(539.1121031746029 112.42857142857156) rotate(0 195.89880952380986 0)"><path d="M0 0 C93.25 0, 186.49 0, 391.8 0 M0 0 C113.3 0, 226.59 0, 391.8 0" stroke="#000000" stroke-width="4" fill="none"></path></g><g transform="translate(539.1121031746029 112.42857142857156) rotate(0 195.89880952380986 0)"><path d="M363.61 10.26 C370.32 7.82, 377.03 5.38, 391.8 0 M363.61 10.26 C371.76 7.29, 379.91 4.33, 391.8 0" stroke="#000000" stroke-width="4" fill="none"></path></g><g transform="translate(539.1121031746029 112.42857142857156) rotate(0 195.89880952380986 0)"><path d="M363.61 -10.26 C370.32 -7.82, 377.03 -5.38, 391.8 0 M363.61 -10.26 C371.76 -7.29, 379.91 -4.33, 391.8 0" stroke="#000000" stroke-width="4" fill="none"></path></g></g><mask></mask><g stroke-linecap="round"><g transform="translate(932.761904761905 66.71428571428532) rotate(0 0 45.714285714285325)"><path d="M0 0 C0 22.86, 0 45.72, 0 91.43 M0 0 C0 20.81, 0 41.62, 0 91.43" stroke="#000000" stroke-width="4" fill="none"></path></g></g><mask></mask><g stroke-linecap="round"><g transform="translate(934.6140873015875 112.42857142857156) rotate(0 195.89880952380986 0)"><path d="M0 0 C116.63 0, 233.26 0, 391.8 0 M0 0 C108.7 0, 217.4 0, 391.8 0" stroke="#000000" stroke-width="4" fill="none"></path></g><g transform="translate(934.6140873015875 112.42857142857156) rotate(0 195.89880952380986 0)"><path d="M363.61 10.26 C372 7.21, 380.39 4.15, 391.8 0 M363.61 10.26 C371.43 7.41, 379.25 4.57, 391.8 0" stroke="#000000" stroke-width="4" fill="none"></path></g><g transform="translate(934.6140873015875 112.42857142857156) rotate(0 195.89880952380986 0)"><path d="M363.61 -10.26 C372 -7.21, 380.39 -4.15, 391.8 0 M363.61 -10.26 C371.43 -7.41, 379.25 -4.57, 391.8 0" stroke="#000000" stroke-width="4" fill="none"></path></g></g><mask></mask><g stroke-linecap="round"><g transform="translate(1328.2638888888896 66.71428571428532) rotate(0 0 45.714285714285325)"><path d="M0 0 C0 23.44, 0 46.87, 0 91.43 M0 0 C0 33.62, 0 67.24, 0 91.43" stroke="#000000" stroke-width="4" fill="none"></path></g></g><mask></mask><g transform="translate(304.9047619047624 10) rotate(0 18 22.5)"><text x="0" y="32" font-family="Virgil, Segoe UI Emoji" font-size="36px" fill="#000000" text-anchor="start" style="white-space: pre;" direction="ltr">E1</text></g><g transform="translate(685.7142857142849 17.785714285713766) rotate(0 26 22.499999999999545)"><text x="0" y="32" font-family="Virgil, Segoe UI Emoji" font-size="36px" fill="#000000" text-anchor="start" style="white-space: pre;" direction="ltr">E2</text></g><g transform="translate(1119.9999999999998 13.500000000001819) rotate(0 24.5 22.500000000000455)"><text x="0" y="32" font-family="Virgil, Segoe UI Emoji" font-size="36px" fill="#000000" text-anchor="start" style="white-space: pre;" direction="ltr">EN</text></g><g transform="translate(918 18.57142857142935) rotate(0 16 22.500000000000455)"><text x="0" y="32" font-family="Virgil, Segoe UI Emoji" font-size="36px" fill="#000000" text-anchor="start" style="white-space: pre;" direction="ltr">...</text></g><g stroke-linecap="round" transform="translate(10 180.76190476190368) rotate(0 65.71428571428578 31.42857142857156)"><path d="M0 0 C0 0, 0 0, 0 0 M0 0 C0 0, 0 0, 0 0 M0.13 12.04 C3.06 8.67, 6 5.3, 10.63 -0.03 M0.13 12.04 C3.77 7.86, 7.41 3.67, 10.63 -0.03 M0.27 24.08 C6.81 16.56, 13.34 9.04, 21.26 -0.07 M0.27 24.08 C5.01 18.63, 9.74 13.18, 21.26 -0.07 M-0.26 36.88 C11.89 22.91, 24.03 8.94, 31.89 -0.1 M-0.26 36.88 C9.08 26.13, 18.43 15.39, 31.89 -0.1 M-0.12 48.92 C13.66 33.06, 27.44 17.21, 42.52 -0.14 M-0.12 48.92 C9.13 38.27, 18.38 27.63, 42.52 -0.14 M0.01 60.96 C15.08 43.62, 30.15 26.28, 53.15 -0.17 M0.01 60.96 C15.93 42.65, 31.85 24.33, 53.15 -0.17 M5.39 66.96 C23.89 45.68, 42.39 24.4, 63.78 -0.21 M5.39 66.96 C24.08 45.46, 42.77 23.96, 63.78 -0.21 M16.02 66.93 C29.69 51.2, 43.36 35.48, 74.41 -0.24 M16.02 66.93 C28.67 52.38, 41.31 37.84, 74.41 -0.24 M26 67.65 C39.65 51.94, 53.3 36.24, 85.04 -0.28 M26 67.65 C46.76 43.77, 67.52 19.88, 85.04 -0.28 M36.63 67.61 C55.51 45.89, 74.39 24.17, 95.67 -0.31 M36.63 67.61 C59.15 41.7, 81.68 15.78, 95.67 -0.31 M47.26 67.58 C68.42 43.23, 89.58 18.89, 106.3 -0.34 M47.26 67.58 C66.44 45.51, 85.62 23.44, 106.3 -0.34 M57.89 67.54 C74.48 48.46, 91.07 29.37, 116.27 0.38 M57.89 67.54 C71.39 52, 84.9 36.46, 116.27 0.38 M68.52 67.51 C88.58 44.43, 108.64 21.35, 126.91 0.34 M68.52 67.51 C83.13 50.7, 97.75 33.88, 126.91 0.34 M79.15 67.48 C97.22 46.69, 115.29 25.9, 134.91 3.33 M79.15 67.48 C95.86 48.24, 112.58 29.01, 134.91 3.33 M89.78 67.44 C107.21 47.39, 124.64 27.34, 135.04 15.37 M89.78 67.44 C104.94 49.99, 120.11 32.55, 135.04 15.37 M100.41 67.41 C110.47 55.83, 120.53 44.26, 135.18 27.41 M100.41 67.41 C107.97 58.71, 115.53 50.01, 135.18 27.41 M111.04 67.37 C116.72 60.83, 122.41 54.29, 135.31 39.45 M111.04 67.37 C120.34 56.67, 129.64 45.98, 135.31 39.45 M121.67 67.34 C125.38 63.07, 129.09 58.8, 134.79 52.24 M121.67 67.34 C125.76 62.63, 129.85 57.93, 134.79 52.24" stroke="#fab005" stroke-width="1" fill="none"></path><path d="M0 0 C36.15 0, 72.29 0, 131.43 0 M0 0 C40.81 0, 81.62 0, 131.43 0 M131.43 0 C131.43 13.85, 131.43 27.71, 131.43 62.86 M131.43 0 C131.43 22.93, 131.43 45.87, 131.43 62.86 M131.43 62.86 C99.43 62.86, 67.43 62.86, 0 62.86 M131.43 62.86 C92.41 62.86, 53.4 62.86, 0 62.86 M0 62.86 C0 50.04, 0 37.23, 0 0 M0 62.86 C0 42.68, 0 22.5, 0 0" stroke="#000000" stroke-width="2" fill="none"></path></g><g stroke-linecap="round" transform="translate(408.2380952380954 180.76190476190368) rotate(0 65.71428571428578 31.42857142857156)"><path d="M0 0 C0 0, 0 0, 0 0 M0 0 C0 0, 0 0, 0 0 M0.13 12.04 C3.38 8.3, 6.63 4.57, 10.63 -0.03 M0.13 12.04 C2.81 8.96, 5.48 5.89, 10.63 -0.03 M0.27 24.08 C6.75 16.62, 13.23 9.17, 21.26 -0.07 M0.27 24.08 C6.35 17.08, 12.44 10.08, 21.26 -0.07 M-0.26 36.88 C8.67 26.61, 17.59 16.35, 31.89 -0.1 M-0.26 36.88 C12.36 22.37, 24.97 7.86, 31.89 -0.1 M-0.12 48.92 C12.35 34.57, 24.81 20.23, 42.52 -0.14 M-0.12 48.92 C9.48 37.88, 19.08 26.83, 42.52 -0.14 M0.01 60.96 C20.38 37.53, 40.75 14.1, 53.15 -0.17 M0.01 60.96 C11.03 48.28, 22.05 35.6, 53.15 -0.17 M5.39 66.96 C26.69 42.46, 47.98 17.96, 63.78 -0.21 M5.39 66.96 C27.77 41.22, 50.14 15.48, 63.78 -0.21 M16.02 66.93 C31.62 48.99, 47.22 31.04, 74.41 -0.24 M16.02 66.93 C32.96 47.45, 49.89 27.96, 74.41 -0.24 M26 67.65 C47.72 42.66, 69.44 17.68, 85.04 -0.28 M26 67.65 C39.44 52.18, 52.88 36.72, 85.04 -0.28 M36.63 67.61 C49.77 52.49, 62.92 37.36, 95.67 -0.31 M36.63 67.61 C55.94 45.4, 75.25 23.19, 95.67 -0.31 M47.26 67.58 C64.79 47.41, 82.32 27.24, 106.3 -0.34 M47.26 67.58 C60.17 52.72, 73.09 37.86, 106.3 -0.34 M57.89 67.54 C81.05 40.9, 104.21 14.25, 116.27 0.38 M57.89 67.54 C75.53 47.25, 93.17 26.95, 116.27 0.38 M68.52 67.51 C86.05 47.34, 103.57 27.18, 126.91 0.34 M68.52 67.51 C81 53.15, 93.47 38.8, 126.91 0.34 M79.15 67.48 C100.84 42.52, 122.53 17.57, 134.91 3.33 M79.15 67.48 C95.66 48.48, 112.16 29.49, 134.91 3.33 M89.78 67.44 C102.41 52.9, 115.05 38.37, 135.04 15.37 M89.78 67.44 C101.84 53.56, 113.91 39.68, 135.04 15.37 M100.41 67.41 C109.19 57.3, 117.97 47.2, 135.18 27.41 M100.41 67.41 C110.36 55.96, 120.31 44.51, 135.18 27.41 M111.04 67.37 C118.03 59.32, 125.03 51.27, 135.31 39.45 M111.04 67.37 C116.57 61, 122.11 54.63, 135.31 39.45 M121.67 67.34 C125.52 62.91, 129.37 58.47, 134.79 52.24 M121.67 67.34 C126.22 62.1, 130.77 56.87, 134.79 52.24" stroke="#fab005" stroke-width="1" fill="none"></path><path d="M0 0 C48.22 0, 96.45 0, 131.43 0 M0 0 C44.77 0, 89.55 0, 131.43 0 M131.43 0 C131.43 18.23, 131.43 36.45, 131.43 62.86 M131.43 0 C131.43 21.16, 131.43 42.32, 131.43 62.86 M131.43 62.86 C104.45 62.86, 77.47 62.86, 0 62.86 M131.43 62.86 C102.65 62.86, 73.88 62.86, 0 62.86 M0 62.86 C0 44.52, 0 26.19, 0 0 M0 62.86 C0 43.9, 0 24.94, 0 0" stroke="#000000" stroke-width="2" fill="none"></path></g><g stroke-linecap="round" transform="translate(802.2380952380952 180.76190476190368) rotate(0 65.71428571428578 31.42857142857156)"><path d="M0 0 C0 0, 0 0, 0 0 M0 0 C0 0, 0 0, 0 0 M0.13 12.04 C3 8.75, 5.86 5.45, 10.63 -0.03 M0.13 12.04 C3.65 7.99, 7.17 3.94, 10.63 -0.03 M0.27 24.08 C6.14 17.33, 12.01 10.58, 21.26 -0.07 M0.27 24.08 C7.51 15.75, 14.75 7.42, 21.26 -0.07 M-0.26 36.88 C9.87 25.23, 20 13.58, 31.89 -0.1 M-0.26 36.88 C7.56 27.88, 15.38 18.89, 31.89 -0.1 M-0.12 48.92 C13.36 33.4, 26.85 17.89, 42.52 -0.14 M-0.12 48.92 C10.07 37.19, 20.27 25.46, 42.52 -0.14 M0.01 60.96 C13.89 44.99, 27.78 29.01, 53.15 -0.17 M0.01 60.96 C11.16 48.13, 22.31 35.3, 53.15 -0.17 M5.39 66.96 C17.08 53.51, 28.77 40.07, 63.78 -0.21 M5.39 66.96 C27.01 42.09, 48.63 17.22, 63.78 -0.21 M16.02 66.93 C32.74 47.69, 49.47 28.45, 74.41 -0.24 M16.02 66.93 C35.93 44.03, 55.84 21.13, 74.41 -0.24 M26 67.65 C38.27 53.53, 50.54 39.41, 85.04 -0.28 M26 67.65 C38.84 52.87, 51.68 38.1, 85.04 -0.28 M36.63 67.61 C49.52 52.78, 62.41 37.95, 95.67 -0.31 M36.63 67.61 C50.74 51.38, 64.85 35.15, 95.67 -0.31 M47.26 67.58 C69.03 42.53, 90.8 17.48, 106.3 -0.34 M47.26 67.58 C62.42 50.14, 77.58 32.7, 106.3 -0.34 M57.89 67.54 C77.64 44.82, 97.39 22.1, 116.27 0.38 M57.89 67.54 C69.76 53.89, 81.63 40.23, 116.27 0.38 M68.52 67.51 C84.02 49.67, 99.53 31.83, 126.91 0.34 M68.52 67.51 C89.58 43.27, 110.65 19.04, 126.91 0.34 M79.15 67.48 C100.35 43.08, 121.56 18.68, 134.91 3.33 M79.15 67.48 C91.98 52.71, 104.82 37.94, 134.91 3.33 M89.78 67.44 C100.37 55.25, 110.97 43.06, 135.04 15.37 M89.78 67.44 C107.86 46.64, 125.94 25.84, 135.04 15.37 M100.41 67.41 C111.95 54.13, 123.49 40.86, 135.18 27.41 M100.41 67.41 C107.8 58.9, 115.2 50.39, 135.18 27.41 M111.04 67.37 C119.85 57.23, 128.67 47.09, 135.31 39.45 M111.04 67.37 C116.84 60.7, 122.64 54.02, 135.31 39.45 M121.67 67.34 C124.73 63.81, 127.79 60.29, 134.79 52.24 M121.67 67.34 C126.14 62.19, 130.61 57.05, 134.79 52.24" stroke="#fab005" stroke-width="1" fill="none"></path><path d="M0 0 C50.73 0, 101.46 0, 131.43 0 M0 0 C32.5 0, 65 0, 131.43 0 M131.43 0 C131.43 16.75, 131.43 33.49, 131.43 62.86 M131.43 0 C131.43 22.51, 131.43 45.03, 131.43 62.86 M131.43 62.86 C104.09 62.86, 76.74 62.86, 0 62.86 M131.43 62.86 C87.28 62.86, 43.14 62.86, 0 62.86 M0 62.86 C0 49.49, 0 36.11, 0 0 M0 62.86 C0 45.4, 0 27.95, 0 0" stroke="#000000" stroke-width="2" fill="none"></path></g><g stroke-linecap="round" transform="translate(1196.9047619047624 180.7619047619055) rotate(0 65.71428571428578 31.42857142857156)"><path d="M0 0 C0 0, 0 0, 0 0 M0 0 C0 0, 0 0, 0 0 M0.13 12.04 C2.66 9.13, 5.19 6.23, 10.63 -0.03 M0.13 12.04 C4.17 7.4, 8.2 2.76, 10.63 -0.03 M0.27 24.08 C7.23 16.07, 14.2 8.06, 21.26 -0.07 M0.27 24.08 C6.81 16.55, 13.36 9.02, 21.26 -0.07 M-0.26 36.88 C10.85 24.1, 21.96 11.32, 31.89 -0.1 M-0.26 36.88 C9.63 25.5, 19.52 14.12, 31.89 -0.1 M-0.12 48.92 C16.19 30.16, 32.5 11.39, 42.52 -0.14 M-0.12 48.92 C8.61 38.88, 17.33 28.84, 42.52 -0.14 M0.01 60.96 C19.55 38.48, 39.1 15.99, 53.15 -0.17 M0.01 60.96 C13.41 45.54, 26.81 30.13, 53.15 -0.17 M5.39 66.96 C24.09 45.45, 42.79 23.94, 63.78 -0.21 M5.39 66.96 C25.61 43.71, 45.82 20.45, 63.78 -0.21 M16.02 66.93 C28.92 52.09, 41.82 37.25, 74.41 -0.24 M16.02 66.93 C31.28 49.37, 46.54 31.82, 74.41 -0.24 M26 67.65 C42.64 48.5, 59.29 29.35, 85.04 -0.28 M26 67.65 C42.63 48.52, 59.26 29.38, 85.04 -0.28 M36.63 67.61 C49.33 53, 62.04 38.38, 95.67 -0.31 M36.63 67.61 C50.32 51.86, 64.02 36.1, 95.67 -0.31 M47.26 67.58 C65.04 47.12, 82.83 26.66, 106.3 -0.34 M47.26 67.58 C65.52 46.57, 83.78 25.56, 106.3 -0.34 M57.89 67.54 C72.94 50.23, 88 32.91, 116.27 0.38 M57.89 67.54 C76.21 46.46, 94.54 25.38, 116.27 0.38 M68.52 67.51 C86.55 46.77, 104.58 26.02, 126.91 0.34 M68.52 67.51 C84.9 48.66, 101.28 29.82, 126.91 0.34 M79.15 67.48 C93.25 51.25, 107.35 35.03, 134.91 3.33 M79.15 67.48 C96.44 47.58, 113.73 27.69, 134.91 3.33 M89.78 67.44 C104.81 50.14, 119.85 32.84, 135.04 15.37 M89.78 67.44 C98.83 57.02, 107.89 46.61, 135.04 15.37 M100.41 67.41 C110.88 55.35, 121.36 43.3, 135.18 27.41 M100.41 67.41 C110.02 56.34, 119.64 45.28, 135.18 27.41 M111.04 67.37 C118.21 59.11, 125.39 50.86, 135.31 39.45 M111.04 67.37 C116.51 61.08, 121.97 54.79, 135.31 39.45 M121.67 67.34 C125.61 62.8, 129.56 58.26, 134.79 52.24 M121.67 67.34 C125.9 62.47, 130.13 57.6, 134.79 52.24" stroke="#fab005" stroke-width="1" fill="none"></path><path d="M0 0 C50.79 0, 101.58 0, 131.43 0 M0 0 C48.8 0, 97.59 0, 131.43 0 M131.43 0 C131.43 19.75, 131.43 39.5, 131.43 62.86 M131.43 0 C131.43 18.34, 131.43 36.69, 131.43 62.86 M131.43 62.86 C101.41 62.86, 71.38 62.86, 0 62.86 M131.43 62.86 C97.58 62.86, 63.73 62.86, 0 62.86 M0 62.86 C0 41.68, 0 20.51, 0 0 M0 62.86 C0 44.54, 0 26.23, 0 0" stroke="#000000" stroke-width="2" fill="none"></path></g><g transform="translate(48.952380952381645 197.09523809523762) rotate(0 25.5 17)"><text x="0" y="27" font-family="Cascadia, Segoe UI Emoji" font-size="28px" fill="#000000" text-anchor="start" style="white-space: pre;" direction="ltr">DKG</text></g><g transform="translate(415.4523809523812 195.42857142857156) rotate(0 58.5 17)"><text x="0" y="27" font-family="Cascadia, Segoe UI Emoji" font-size="28px" fill="#000000" text-anchor="start" style="white-space: pre;" direction="ltr">Reshare</text></g><g transform="translate(810.4523809523812 195.42857142857156) rotate(0 58.5 17)"><text x="0" y="27" font-family="Cascadia, Segoe UI Emoji" font-size="28px" fill="#000000" text-anchor="start" style="white-space: pre;" direction="ltr">Reshare</text></g><g transform="translate(1205.4523809523812 195.42857142857156) rotate(0 58.5 17)"><text x="0" y="27" font-family="Cascadia, Segoe UI Emoji" font-size="28px" fill="#000000" text-anchor="start" style="white-space: pre;" direction="ltr">Reshare</text></g><g stroke-linecap="round"><g transform="translate(12.127480158729668 68.38095238095502) rotate(0 0 45.714285714285325)"><path d="M0 0 C0 30.85, 0 61.71, 0 91.43 M0 0 C0 20.81, 0 41.62, 0 91.43" stroke="#000000" stroke-width="4" fill="none"></path></g></g><mask></mask><g stroke-linecap="round"><g transform="translate(13.97966269841254 114.09523809523762) rotate(0 64.15302579365084 0)"><path d="M0 0 C35.55 0, 71.11 0, 128.31 0 M0 0 C27.73 0, 55.45 0, 128.31 0" stroke="#000000" stroke-width="4" fill="none"></path></g><g transform="translate(13.97966269841254 114.09523809523762) rotate(0 64.15302579365084 0)"><path d="M100.12 10.26 C107.93 7.42, 115.74 4.57, 128.31 0 M100.12 10.26 C106.21 8.04, 112.3 5.83, 128.31 0" stroke="#000000" stroke-width="4" fill="none"></path></g><g transform="translate(13.97966269841254 114.09523809523762) rotate(0 64.15302579365084 0)"><path d="M100.12 -10.26 C107.93 -7.42, 115.74 -4.57, 128.31 0 M100.12 -10.26 C106.21 -8.04, 112.3 -5.83, 128.31 0" stroke="#000000" stroke-width="4" fill="none"></path></g></g><mask></mask><g transform="translate(43.952380952380736 30.59523809523853) rotate(0 38.5 22.500000000000455)"><text x="0" y="32" font-family="Virgil, Segoe UI Emoji" font-size="36px" fill="#000000" text-anchor="start" style="white-space: pre;" direction="ltr">Init.</text></g></svg>